<?xml version="1.0" encoding="UTF-8" standalone="no"?>
<svg
   xmlns="http://www.w3.org/2000/svg"
   xmlns:rdf="http://www.w3.org/1999/02/22-rdf-syntax-ns#"
   xmlns:dc="http://purl.org/dc/elements/1.1/"
   xmlns:cc="http://creativecommons.org/ns#"
   width="28"
   height="18"
   viewBox="0 0 28 18"
   style="shape-rendering: auto">

  <metadata>
    <rdf:RDF>
      <cc:Work>
        <dc:format>image/svg+xml</dc:format>
        <dc:type rdf:resource="http://purl.org/dc/dcmitype/StillImage" />
        <dc:rights><cc:Agent><dc:title>Copyright © 2017—2019 Maxim Rysevets. All rights reserved.</dc:title></cc:Agent></dc:rights>
        <dc:creator><cc:Agent><dc:title>Maxim Rysevets</dc:title></cc:Agent></dc:creator>
      </cc:Work>
    </rdf:RDF>
  </metadata>

  <g>
    <rect x="0" y="0"  width="28" height="18" style="fill: white; stroke: none" />
    <rect x="0" y="0"  width="28" height="2"  style="fill: #bd0c3b; stroke: none" />
    <rect x="0" y="4"  width="28" height="2"  style="fill: #bd0c3b; stroke: none" />
    <rect x="0" y="8"  width="28" height="2"  style="fill: #bd0c3b; stroke: none" />
    <rect x="0" y="12" width="28" height="2"  style="fill: #bd0c3b; stroke: none" />
    <rect x="0" y="16" width="28" height="2"  style="fill: #bd0c3b; stroke: none" />
    <g>
      <rect x="0"    y="0"   width="14" height="10" style="fill: #002466; stroke: none" />
      <rect x="1.5"  y="1"   width="1"  height="1"  style="fill: white; stroke: none" />
      <rect x="1.5"  y="4.5" width="1"  height="1"  style="fill: white; stroke: none" />
      <rect x="1.5"  y="8"   width="1"  height="1"  style="fill: white; stroke: none" />
      <rect x="4"    y="3"   width="1"  height="1"  style="fill: white; stroke: none" />
      <rect x="4"    y="6.5" width="1"  height="1"  style="fill: white; stroke: none" />
      <rect x="6.5"  y="1"   width="1"  height="1"  style="fill: white; stroke: none" />
      <rect x="6.5"  y="4.5" width="1"  height="1"  style="fill: white; stroke: none" />
      <rect x="6.5"  y="8"   width="1"  height="1"  style="fill: white; stroke: none" />
      <rect x="9"    y="3"   width="1"  height="1"  style="fill: white; stroke: none" />
      <rect x="9"    y="6.5" width="1"  height="1"  style="fill: white; stroke: none" />
      <rect x="11.5" y="1"   width="1"  height="1"  style="fill: white; stroke: none" />
      <rect x="11.5" y="4.5" width="1"  height="1"  style="fill: white; stroke: none" />
      <rect x="11.5" y="8"   width="1"  height="1"  style="fill: white; stroke: none" />
    </g>
  </g>

</svg>
